<?xml version="1.0" standalone="no"?><!DOCTYPE svg PUBLIC "-//W3C//DTD SVG 1.1//EN" "http://www.w3.org/Graphics/SVG/1.1/DTD/svg11.dtd"><svg class="icon" width="128px" height="128.00px" viewBox="0 0 1024 1024" version="1.1" xmlns="http://www.w3.org/2000/svg"><path fill="#0088ff" d="M749.673472 146.341888l-475.398144 0q-37.711872 0-64.567296 26.855424t-26.855424 64.567296l0 475.398144q0 37.711872 26.855424 64.567296t64.567296 26.855424l475.398144 0q37.711872 0 64.567296-26.855424t26.855424-64.567296l0-475.398144q0-37.711872-26.855424-64.567296t-64.567296-26.855424zm164.560896 91.42272l0 475.398144q0 67.995648-48.282624 116.278272t-116.278272 48.282624l-475.398144 0q-67.995648 0-116.278272-48.282624t-48.282624-116.278272l0-475.398144q0-67.995648 48.282624-116.278272t116.278272-48.282624l475.398144 0q67.995648 0 116.278272 48.282624t48.282624 116.278272z" /></svg>
