<?xml version="1.0" standalone="no"?><!DOCTYPE svg PUBLIC "-//W3C//DTD SVG 1.1//EN" "http://www.w3.org/Graphics/SVG/1.1/DTD/svg11.dtd"><svg class="icon" width="128px" height="128.00px" viewBox="0 0 1024 1024" version="1.1" xmlns="http://www.w3.org/2000/svg"><path fill="#0088ff" d="M841.091584 531.460096l0 181.702656q0 67.995648-48.282624 116.278272t-116.278272 48.282624l-475.398144 0q-67.995648 0-116.278272-48.282624t-48.282624-116.278272l0-475.398144q0-67.995648 48.282624-116.278272t116.278272-48.282624l475.398144 0q35.997696 0 66.852864 14.2848 8.57088 3.999744 10.285056 13.142016 1.714176 9.713664-5.142528 16.570368l-27.998208 27.998208q-5.71392 5.71392-13.142016 5.71392-1.714176 0-5.142528-1.142784-13.142016-3.428352-25.71264-3.428352l-475.398144 0q-37.711872 0-64.567296 26.855424t-26.855424 64.567296l0 475.398144q0 37.711872 26.855424 64.567296t64.567296 26.855424l475.398144 0q37.711872 0 64.567296-26.855424t26.855424-64.567296l0-145.133568q0-7.428096 5.142528-12.570624l36.569088-36.569088q5.71392-5.71392 13.142016-5.71392 3.428352 0 6.856704 1.714176 11.42784 4.571136 11.42784 16.570368zm131.991552-279.410688l-465.113088 465.113088q-13.713408 13.713408-32.569344 13.713408t-32.569344-13.713408l-245.69856-245.69856q-13.713408-13.713408-13.713408-32.569344t13.713408-32.569344l62.85312-62.85312q13.713408-13.713408 32.569344-13.713408t32.569344 13.713408l150.276096 150.276096 369.690624-369.690624q13.713408-13.713408 32.569344-13.713408t32.569344 13.713408l62.85312 62.85312q13.713408 13.713408 13.713408 32.569344t-13.713408 32.569344z" /></svg>
