<?xml version="1.0" standalone="no"?><!DOCTYPE svg PUBLIC "-//W3C//DTD SVG 1.1//EN" "http://www.w3.org/Graphics/SVG/1.1/DTD/svg11.dtd"><svg class="icon" width="128px" height="128.00px" viewBox="0 0 1024 1024" version="1.1" xmlns="http://www.w3.org/2000/svg"><path fill="#ffffff" d="M481.42336 11.58144c-123.72992 6.35904-242.51392 61.27616-331.3664 153.42592-186.18368 193.49504-186.4192 498.70848-0.70656 693.38112 65.28 68.57728 146.36032 116.19328 236.3904 139.28448 44.544 11.3152 78.24384 15.55456 126.32064 15.55456 83.67104 0 155.07456-16.96768 227.90144-54.21056 174.40768-89.088 281.16992-271.03232 273.38752-465.70496-8.94976-222.01344-161.44384-411.97568-374.96832-466.64704-52.7872-13.43488-98.97984-17.90976-156.95872-15.08352z m57.74336 188.07808c12.02176 5.41696 27.81184 22.6304 32.0512 34.64192 2.59072 7.53664 3.29728 41.0112 3.29728 182.41536 0 191.8464 0.94208 180.29568-15.55456 199.14752-23.57248 26.86976-69.29408 26.39872-91.67872-0.70656-14.37696-17.67424-14.14144-12.96384-14.14144-199.38304 0-109.824 0.94208-172.99456 2.3552-178.64704 3.76832-13.43488 16.26112-28.04736 30.40256-35.34848 15.5648-8.25344 38.18496-8.96 53.26848-2.11968z m-1.88416 510.72c27.81184 16.96768 32.28672 56.56576 8.96 79.89248-23.33696 23.33696-62.9248 18.85184-80.128-9.18528-5.888-9.90208-7.0656-14.14144-7.0656-27.3408 0-13.43488 1.1776-17.43872 7.0656-27.10528 15.07328-24.51456 46.1824-31.58016 71.168-16.26112z" /></svg>