<?xml version="1.0" encoding="utf-8"?>
<!-- Generator: Adobe Illustrator 21.1.0, SVG Export Plug-In . SVG Version: 6.00 Build 0)  -->
<svg version="1.1" id="图层_1" xmlns="http://www.w3.org/2000/svg" xmlns:xlink="http://www.w3.org/1999/xlink" x="0px" y="0px"
	 viewBox="0 0 512 512" enable-background="new 0 0 512 512" xml:space="preserve">
<path d="M13.5,496.2c0.2-0.5,0.5-0.9,0.7-1.4c1.7-5.7,6.4-9.5,12.3-9.9c0.6,0,1.3,0,1.9,0c30.3,0,60.5,0,90.8,0c0.7,0,1.4,0,2,0
	c0.3-1.3,0.4-105.5,0.1-107.6c-0.6,0-1.3,0-2,0c-21.6,0-43.3,0-64.9,0c-4.5,0-8.3-1.7-11-5.4c-3.2-4.3-3.7-9-1.5-13.8
	c2.3-5,6.4-7.6,11.9-7.9c0.5,0,1.1,0,1.6,0c21.3,0,42.5,0,63.8,0c0.7,0,1.4,0,2.2,0c0-0.9,0-1.7,0-2.4c0-66.7,0-133.5,0-200.2
	c0-35.4,0-70.8,0-106.2c0-4.1,0.4-8.2,1.6-12.2c3.3-10.8,9.8-18.9,19.7-24.3c6.5-3.6,13.5-5.3,20.9-4.8c16.4,1.1,28.3,9.2,35.3,24.1
	c2.5,5.2,3.5,10.8,3.5,16.5c0,97.1,0,194.2,0,291.4c0,0.7,0,1.5,0,2.3c0.4,0.1,0.8,0.2,1.1,0.2c0.5,0,1.1,0,1.6,0
	c89.6,0,179.2,0,268.9,0c11.6,0,21.8,8.3,24,19.6c0.2,1,0.3,2.1,0.5,3.1c0,35.4,0,70.7,0,106.1c-0.2,1.1-0.2,2.2-0.5,3.3
	c-2.2,9-7.6,15.1-16.4,18.3c-3.1,1.1-6.3,1.3-9.5,1.3c-88.9,0-177.8,0-266.7,0c-0.5,0-1.1,0-1.6,0c-0.4,0-0.8,0.1-1.3,0.1
	c0,0.7,0,1.3,0,1.8c0,3.4,0.1,6.9,0,10.3c-0.1,4.9-2.2,8.7-6.4,11.4c-2.4,1.5-5,2-7.8,2c-53.5,0-106.9,0-160.4,0c-0.3,0-0.6,0-1,0
	c-1.3-0.2-2.6-0.2-3.8-0.6c-4.6-1.5-7.5-4.6-9-9.1c-0.2-0.5-0.5-1-0.7-1.5C13.5,499.2,13.5,497.7,13.5,496.2z M470.6,362.6
	c-88.8,0-177.4,0-266.1,0c0,32,0,63.8,0,95.6c2.5,0.3,265,0.2,266.1-0.1C470.6,426.3,470.6,394.5,470.6,362.6z M175.4,484.8
	c0-0.9,0-1.6,0-2.3c0-66.4,0-132.8,0-199.3c0-80.6,0-161.1,0-241.7c0-1.1-0.1-2.3-0.2-3.4c-1-6-6-10.2-11.3-10.9
	c-6.6-0.9-12.1,3.1-14.1,8.1c-0.9,2.2-1.1,4.4-1.1,6.8c0,146.8,0,293.5,0,440.3c0,0.4,0,0.8,0,1.1c0,0.4,0.1,0.8,0.1,1.3
	C157.5,484.8,166.3,484.8,175.4,484.8z"/>
</svg>
