<?xml version="1.0" standalone="no"?><!DOCTYPE svg PUBLIC "-//W3C//DTD SVG 1.1//EN" "http://www.w3.org/Graphics/SVG/1.1/DTD/svg11.dtd"><svg class="icon" width="128px" height="128.00px" viewBox="0 0 1024 1024" version="1.1" xmlns="http://www.w3.org/2000/svg"><path fill="#ffffff" d="M512 0c-281.6 0-512 230.4-512 512s230.4 512 512 512c281.6 0 512-230.4 512-512s-230.4-512-512-512zM512 832c-32 0-64-32-64-64l121.6 0c0 32-25.6 64-57.6 64zM806.4 742.4l-588.8 0 0-38.4 83.2-70.4 0-192c0-102.4 70.4-185.6 172.8-204.8l0-19.2c0-12.8 12.8-25.6 25.6-25.6l25.6 0c12.8 0 25.6 12.8 25.6 25.6l0 12.8c96 19.2 172.8 102.4 172.8 204.8l0 198.4 83.2 70.4 0 38.4z" /></svg>